<?xml version="1.0" encoding="UTF-8" standalone="no"?>
<!DOCTYPE svg PUBLIC "-//W3C//DTD SVG 1.1//EN"
 "http://www.w3.org/Graphics/SVG/1.1/DTD/svg11.dtd">
<!-- Generated by graphviz version 2.43.0 (0)
 -->
<!-- Title: MV_DGT_SignalExtraction Pages: 1 -->
<svg width="1295pt" height="1201pt"
 viewBox="0.00 0.00 1295.02 1200.52" xmlns="http://www.w3.org/2000/svg" xmlns:xlink="http://www.w3.org/1999/xlink">
<g id="graph0" class="graph" transform="scale(1 1) rotate(0) translate(5.76 1194.76)">
<title>MV_DGT_SignalExtraction</title>
<polygon fill="white" stroke="transparent" points="-5.76,5.76 -5.76,-1194.76 1289.26,-1194.76 1289.26,5.76 -5.76,5.76"/>
<g id="clust1" class="cluster">
<title>cluster_inputs</title>
<path fill="white" stroke="#94a3b8" stroke-width="1.2" d="M213.5,-1034C213.5,-1034 1166.5,-1034 1166.5,-1034 1172.5,-1034 1178.5,-1040 1178.5,-1046 1178.5,-1046 1178.5,-1125 1178.5,-1125 1178.5,-1131 1172.5,-1137 1166.5,-1137 1166.5,-1137 213.5,-1137 213.5,-1137 207.5,-1137 201.5,-1131 201.5,-1125 201.5,-1125 201.5,-1046 201.5,-1046 201.5,-1040 207.5,-1034 213.5,-1034"/>
<text text-anchor="middle" x="690" y="-1120.2" font-family="Inter,Helvetica,Arial" font-size="16.00">Inputs</text>
</g>
<g id="clust2" class="cluster">
<title>cluster_views</title>
<path fill="white" stroke="#64748b" stroke-width="1.2" d="M403.5,-729C403.5,-729 1002.5,-729 1002.5,-729 1008.5,-729 1014.5,-735 1014.5,-741 1014.5,-741 1014.5,-1014 1014.5,-1014 1014.5,-1020 1008.5,-1026 1002.5,-1026 1002.5,-1026 403.5,-1026 403.5,-1026 397.5,-1026 391.5,-1020 391.5,-1014 391.5,-1014 391.5,-741 391.5,-741 391.5,-735 397.5,-729 403.5,-729"/>
<text text-anchor="middle" x="703" y="-1009.2" font-family="Inter,Helvetica,Arial" font-size="16.00">Graph views (how edges are defined)</text>
</g>
<g id="clust3" class="cluster">
<title>cluster_graph</title>
<path fill="white" stroke="#4c78a8" stroke-width="1.3" d="M108.5,-632C108.5,-632 371.5,-632 371.5,-632 377.5,-632 383.5,-638 383.5,-644 383.5,-644 383.5,-1014 383.5,-1014 383.5,-1020 377.5,-1026 371.5,-1026 371.5,-1026 108.5,-1026 108.5,-1026 102.5,-1026 96.5,-1020 96.5,-1014 96.5,-1014 96.5,-644 96.5,-644 96.5,-638 102.5,-632 108.5,-632"/>
<text text-anchor="middle" x="240" y="-1009.2" font-family="Inter,Helvetica,Arial" font-size="16.00">Multi‑view Graph Encoder (2 layers)</text>
</g>
<g id="clust4" class="cluster">
<title>cluster_anchor</title>
<path fill="white" stroke="#f58518" stroke-width="1.3" d="M303.5,-418C303.5,-418 707.5,-418 707.5,-418 713.5,-418 719.5,-424 719.5,-430 719.5,-430 719.5,-612 719.5,-612 719.5,-618 713.5,-624 707.5,-624 707.5,-624 303.5,-624 303.5,-624 297.5,-624 291.5,-618 291.5,-612 291.5,-612 291.5,-430 291.5,-430 291.5,-424 297.5,-418 303.5,-418"/>
<text text-anchor="middle" x="505.5" y="-607.2" font-family="Inter,Helvetica,Arial" font-size="16.00">Anchor residual (portfolio‑conditioned)</text>
</g>
<g id="clust5" class="cluster">
<title>cluster_ctx</title>
<path fill="white" stroke="#54a24b" stroke-width="1.3" d="M739.5,-321C739.5,-321 1097.5,-321 1097.5,-321 1103.5,-321 1109.5,-327 1109.5,-333 1109.5,-333 1109.5,-509 1109.5,-509 1109.5,-515 1103.5,-521 1097.5,-521 1097.5,-521 739.5,-521 739.5,-521 733.5,-521 727.5,-515 727.5,-509 727.5,-509 727.5,-333 727.5,-333 727.5,-327 733.5,-321 739.5,-321"/>
<text text-anchor="middle" x="918.5" y="-504.2" font-family="Inter,Helvetica,Arial" font-size="16.00">Context &amp; within‑portfolio interactions (optional)</text>
</g>
<g id="clust6" class="cluster">
<title>cluster_head</title>
<path fill="white" stroke="#0f172a" stroke-width="1.3" d="M712.5,-130C712.5,-130 944.5,-130 944.5,-130 950.5,-130 956.5,-136 956.5,-142 956.5,-142 956.5,-301 956.5,-301 956.5,-307 950.5,-313 944.5,-313 944.5,-313 712.5,-313 712.5,-313 706.5,-313 700.5,-307 700.5,-301 700.5,-301 700.5,-142 700.5,-142 700.5,-136 706.5,-130 712.5,-130"/>
<text text-anchor="middle" x="828.5" y="-296.2" font-family="Inter,Helvetica,Arial" font-size="16.00">Prediction</text>
</g>
<!-- TITLE -->
<g id="node1" class="node">
<title>TITLE</title>
<text text-anchor="start" x="4.5" y="-1174.8" font-family="Inter,Helvetica,Arial" font-weight="bold" font-size="14.00">MV‑DGT — signal extraction pipeline</text>
<text text-anchor="start" x="4.5" y="-1152.8" font-family="Inter,Helvetica,Arial" font-size="14.00">Multi‑view graph → anchor residual → optional context/attention → regression</text>
</g>
<!-- X -->
<g id="node2" class="node">
<title>X</title>
<text text-anchor="start" x="214.5" y="-1088.3" font-family="Inter,Helvetica,Arial" font-weight="bold" font-size="14.00">Node features</text>
<text text-anchor="start" x="214.5" y="-1066.3" font-family="Inter,Helvetica,Arial" font-size="14.00">x</text>
<text text-anchor="start" x="214.5" y="-1048.5" font-family="Inter,Helvetica,Arial" font-size="10.00" fill="#64748b">[N, x_dim]</text>
</g>
<!-- TITLE&#45;&gt;X -->
<!-- ENC -->
<g id="node14" class="node">
<title>ENC</title>
<text text-anchor="start" x="198.5" y="-977.3" font-family="Inter,Helvetica,Arial" font-weight="bold" font-size="14.00">Node encoder</text>
<text text-anchor="start" x="198.5" y="-955.3" font-family="Inter,Helvetica,Arial" font-size="14.00">MLP + LayerNorm</text>
<text text-anchor="start" x="198.5" y="-937.5" font-family="Inter,Helvetica,Arial" font-size="10.00" fill="#64748b">x_dim → D</text>
</g>
<!-- X&#45;&gt;ENC -->
<g id="edge14" class="edge">
<title>X&#45;&gt;ENC</title>
<path fill="none" stroke="#334155" d="M262.5,-1041.87C262.5,-1041.87 262.5,-1000.03 262.5,-1000.03"/>
<polygon fill="#334155" stroke="#334155" points="265.3,-1000.03 262.5,-992.03 259.7,-1000.03 265.3,-1000.03"/>
</g>
<!-- EI -->
<g id="node3" class="node">
<title>EI</title>
<text text-anchor="start" x="346.5" y="-1088.3" font-family="Inter,Helvetica,Arial" font-weight="bold" font-size="14.00">Graph buffers</text>
<text text-anchor="start" x="346.5" y="-1066.3" font-family="Inter,Helvetica,Arial" font-size="14.00">edge_index / edge_weight</text>
<text text-anchor="start" x="346.5" y="-1048.5" font-family="Inter,Helvetica,Arial" font-size="10.00" fill="#64748b">[2,E], [E]</text>
</g>
<!-- V_STRUCT -->
<g id="node8" class="node">
<title>V_STRUCT</title>
<text text-anchor="start" x="404.5" y="-977.3" font-family="Inter,Helvetica,Arial" font-weight="bold" font-size="14.00">Structural view</text>
<text text-anchor="start" x="404.5" y="-955.3" font-family="Inter,Helvetica,Arial" font-size="14.00">static edges</text>
<text text-anchor="start" x="404.5" y="-937.5" font-family="Inter,Helvetica,Arial" font-size="10.00" fill="#64748b">mask_struct</text>
</g>
<!-- EI&#45;&gt;V_STRUCT -->
<g id="edge15" class="edge">
<title>EI&#45;&gt;V_STRUCT</title>
<path fill="none" stroke="#334155" d="M456.5,-1041.87C456.5,-1041.87 456.5,-1000.03 456.5,-1000.03"/>
<polygon fill="#334155" stroke="#334155" points="459.3,-1000.03 456.5,-992.03 453.7,-1000.03 459.3,-1000.03"/>
</g>
<!-- MASKS -->
<g id="node4" class="node">
<title>MASKS</title>
<text text-anchor="start" x="556.5" y="-1088.3" font-family="Inter,Helvetica,Arial" font-weight="bold" font-size="14.00">View masks</text>
<text text-anchor="start" x="556.5" y="-1066.3" font-family="Inter,Helvetica,Arial" font-size="14.00">struct / port / corrG / corrL</text>
<text text-anchor="start" x="556.5" y="-1048.5" font-family="Inter,Helvetica,Arial" font-size="10.00" fill="#64748b">per‑view edge subsets</text>
</g>
<!-- MASKS&#45;&gt;V_STRUCT -->
<g id="edge16" class="edge">
<title>MASKS&#45;&gt;V_STRUCT</title>
<path fill="none" stroke="#334155" d="M551.96,-1072C540.52,-1072 532.75,-1072 532.75,-1072 532.75,-1072 532.75,-961 532.75,-961 532.75,-961 521.11,-961 521.11,-961"/>
<polygon fill="#334155" stroke="#334155" points="521.11,-958.2 513.11,-961 521.11,-963.8 521.11,-958.2"/>
</g>
<!-- ANCH -->
<g id="node5" class="node">
<title>ANCH</title>
<text text-anchor="start" x="768.5" y="-1088.3" font-family="Inter,Helvetica,Arial" font-weight="bold" font-size="14.00">Batch anchors</text>
<text text-anchor="start" x="768.5" y="-1066.3" font-family="Inter,Helvetica,Arial" font-size="14.00">anchor_idx</text>
<text text-anchor="start" x="768.5" y="-1048.5" font-family="Inter,Helvetica,Arial" font-size="10.00" fill="#64748b">[B]</text>
</g>
<!-- GATHER -->
<g id="node18" class="node">
<title>GATHER</title>
<text text-anchor="start" x="303.5" y="-575.3" font-family="Inter,Helvetica,Arial" font-weight="bold" font-size="14.00">Gather anchor</text>
<text text-anchor="start" x="303.5" y="-553.3" font-family="Inter,Helvetica,Arial" font-size="14.00">z_pre = H[anchor_idx]</text>
<text text-anchor="start" x="303.5" y="-535.5" font-family="Inter,Helvetica,Arial" font-size="10.00" fill="#64748b">[B, D]</text>
</g>
<!-- ANCH&#45;&gt;GATHER -->
<g id="edge21" class="edge">
<title>ANCH&#45;&gt;GATHER</title>
<path fill="none" stroke="#334155" d="M806,-1041.83C806,-1028.99 806,-1017 806,-1017 806,-1017 387.75,-1017 387.75,-1017 387.75,-1017 387.75,-598.23 387.75,-598.23"/>
<polygon fill="#334155" stroke="#334155" points="390.55,-598.23 387.75,-590.23 384.95,-598.23 390.55,-598.23"/>
</g>
<!-- PFGID -->
<g id="node6" class="node">
<title>PFGID</title>
<text text-anchor="start" x="904.5" y="-1088.3" font-family="Inter,Helvetica,Arial" font-weight="bold" font-size="14.00">Portfolio id</text>
<text text-anchor="start" x="904.5" y="-1066.3" font-family="Inter,Helvetica,Arial" font-size="14.00">pf_gid</text>
<text text-anchor="start" x="904.5" y="-1048.5" font-family="Inter,Helvetica,Arial" font-size="10.00" fill="#64748b">[B] (−1 means none)</text>
</g>
<!-- LOO -->
<g id="node19" class="node">
<title>LOO</title>
<text text-anchor="start" x="485.5" y="-575.3" font-family="Inter,Helvetica,Arial" font-weight="bold" font-size="14.00">Strict LOO prototype</text>
<text text-anchor="start" x="485.5" y="-553.3" font-family="Inter,Helvetica,Arial" font-size="14.00">V_abs from co‑portfolio neighbors</text>
<text text-anchor="start" x="485.5" y="-535.5" font-family="Inter,Helvetica,Arial" font-size="10.00" fill="#64748b">L2‑norm, [B, D]</text>
</g>
<!-- PFGID&#45;&gt;LOO -->
<g id="edge22" class="edge">
<title>PFGID&#45;&gt;LOO</title>
<path fill="none" stroke="#334155" d="M1007.24,-1072C1011.82,-1072 1014.75,-1072 1014.75,-1072 1014.75,-1072 1014.75,-574 1014.75,-574 1014.75,-574 720.17,-574 720.17,-574"/>
<polygon fill="#334155" stroke="#334155" points="720.17,-571.2 712.17,-574 720.17,-576.8 720.17,-571.2"/>
</g>
<!-- PFC -->
<g id="node7" class="node">
<title>PFC</title>
<text text-anchor="start" x="1038.5" y="-1088.3" font-family="Inter,Helvetica,Arial" font-weight="bold" font-size="14.00">Portfolio context</text>
<text text-anchor="start" x="1038.5" y="-1066.3" font-family="Inter,Helvetica,Arial" font-size="14.00">port_ctx (flat)</text>
<text text-anchor="start" x="1038.5" y="-1048.5" font-family="Inter,Helvetica,Arial" font-size="10.00" fill="#64748b">nodes + weights + lengths</text>
</g>
<!-- PFC&#45;&gt;LOO -->
<g id="edge23" class="edge">
<title>PFC&#45;&gt;LOO</title>
<path fill="none" stroke="#334155" d="M1076,-1041.92C1076,-931.37 1076,-559 1076,-559 1076,-559 720.27,-559 720.27,-559"/>
<polygon fill="#334155" stroke="#334155" points="720.27,-556.2 712.27,-559 720.27,-561.8 720.27,-556.2"/>
</g>
<!-- L1 -->
<g id="node15" class="node">
<title>L1</title>
<text text-anchor="start" x="139.5" y="-880.3" font-family="Inter,Helvetica,Arial" font-weight="bold" font-size="14.00">DGT layer 1</text>
<text text-anchor="start" x="139.5" y="-858.3" font-family="Inter,Helvetica,Arial" font-size="14.00">TransformerConv per view + fusion</text>
<text text-anchor="start" x="139.5" y="-840.5" font-family="Inter,Helvetica,Arial" font-size="10.00" fill="#64748b">learn σ(g1[v])</text>
</g>
<!-- V_STRUCT&#45;&gt;L1 -->
<g id="edge17" class="edge">
<title>V_STRUCT&#45;&gt;L1</title>
<path fill="none" stroke="#334155" d="M399.91,-961C374.77,-961 350.75,-961 350.75,-961 350.75,-961 350.75,-903.03 350.75,-903.03"/>
<polygon fill="#334155" stroke="#334155" points="353.55,-903.03 350.75,-895.03 347.95,-903.03 353.55,-903.03"/>
</g>
<!-- V_PORT -->
<g id="node9" class="node">
<title>V_PORT</title>
<text text-anchor="start" x="544.5" y="-977.3" font-family="Inter,Helvetica,Arial" font-weight="bold" font-size="14.00">Portfolio view</text>
<text text-anchor="start" x="544.5" y="-955.3" font-family="Inter,Helvetica,Arial" font-size="14.00">co‑membership edges</text>
<text text-anchor="start" x="544.5" y="-937.5" font-family="Inter,Helvetica,Arial" font-size="10.00" fill="#64748b">mask_port</text>
</g>
<!-- STD -->
<g id="node12" class="node">
<title>STD</title>
<text text-anchor="start" x="690.5" y="-880.3" font-family="Inter,Helvetica,Arial" font-weight="bold" font-size="14.00">Per‑view standardize</text>
<text text-anchor="start" x="690.5" y="-858.3" font-family="Inter,Helvetica,Arial" font-size="14.00">weights → comparable scale</text>
<text text-anchor="start" x="690.5" y="-840.5" font-family="Inter,Helvetica,Arial" font-size="10.00" fill="#64748b">non‑struct views</text>
</g>
<!-- V_PORT&#45;&gt;STD -->
<g id="edge1" class="edge">
<title>V_PORT&#45;&gt;STD</title>
<path fill="none" stroke="#334155" d="M691.5,-930.81C691.5,-930.81 691.5,-903.32 691.5,-903.32"/>
<polygon fill="#334155" stroke="#334155" points="694.3,-903.32 691.5,-895.32 688.7,-903.32 694.3,-903.32"/>
</g>
<!-- V_PORT&#45;&gt;L1 -->
<g id="edge18" class="edge">
<title>V_PORT&#45;&gt;L1</title>
<path fill="none" stroke="#334155" d="M613.5,-930.92C613.5,-902.32 613.5,-864 613.5,-864 613.5,-864 383.7,-864 383.7,-864"/>
<polygon fill="#334155" stroke="#334155" points="383.7,-861.2 375.7,-864 383.7,-866.8 383.7,-861.2"/>
</g>
<!-- V_CG -->
<g id="node10" class="node">
<title>V_CG</title>
<text text-anchor="start" x="878.5" y="-977.3" font-family="Inter,Helvetica,Arial" font-weight="bold" font-size="14.00">Corr view (global)</text>
<text text-anchor="start" x="878.5" y="-955.3" font-family="Inter,Helvetica,Arial" font-size="14.00">correlation edges</text>
<text text-anchor="start" x="878.5" y="-937.5" font-family="Inter,Helvetica,Arial" font-size="10.00" fill="#64748b">mask_corr_global</text>
</g>
<!-- V_CG&#45;&gt;STD -->
<g id="edge2" class="edge">
<title>V_CG&#45;&gt;STD</title>
<path fill="none" stroke="#334155" d="M881.17,-930.81C881.17,-930.81 881.17,-903.32 881.17,-903.32"/>
<polygon fill="#334155" stroke="#334155" points="883.97,-903.32 881.17,-895.32 878.37,-903.32 883.97,-903.32"/>
</g>
<!-- V_CG&#45;&gt;L1 -->
<g id="edge19" class="edge">
<title>V_CG&#45;&gt;L1</title>
<path fill="none" stroke="#334155" d="M877.83,-930.75C877.83,-918.38 877.83,-907 877.83,-907 877.83,-907 367.25,-907 367.25,-907 367.25,-907 367.25,-903.39 367.25,-903.39"/>
<polygon fill="#334155" stroke="#334155" points="370.05,-903.39 367.25,-895.39 364.45,-903.39 370.05,-903.39"/>
</g>
<!-- V_CL -->
<g id="node11" class="node">
<title>V_CL</title>
<text text-anchor="start" x="727.5" y="-977.3" font-family="Inter,Helvetica,Arial" font-weight="bold" font-size="14.00">Corr view (local)</text>
<text text-anchor="start" x="727.5" y="-955.3" font-family="Inter,Helvetica,Arial" font-size="14.00">correlation edges</text>
<text text-anchor="start" x="727.5" y="-937.5" font-family="Inter,Helvetica,Arial" font-size="10.00" fill="#64748b">mask_corr_local</text>
</g>
<!-- V_CL&#45;&gt;STD -->
<g id="edge3" class="edge">
<title>V_CL&#45;&gt;STD</title>
<path fill="none" stroke="#334155" d="M806.17,-930.81C806.17,-930.81 806.17,-903.32 806.17,-903.32"/>
<polygon fill="#334155" stroke="#334155" points="808.97,-903.32 806.17,-895.32 803.37,-903.32 808.97,-903.32"/>
</g>
<!-- V_CL&#45;&gt;L1 -->
<g id="edge20" class="edge">
<title>V_CL&#45;&gt;L1</title>
<path fill="none" stroke="#334155" d="M764.83,-930.61C764.83,-924.02 764.83,-919 764.83,-919 764.83,-919 359,-919 359,-919 359,-919 359,-903.25 359,-903.25"/>
<polygon fill="#334155" stroke="#334155" points="361.8,-903.25 359,-895.25 356.2,-903.25 361.8,-903.25"/>
</g>
<!-- CORRG -->
<g id="node13" class="node">
<title>CORRG</title>
<text text-anchor="start" x="691.5" y="-783.3" font-family="Inter,Helvetica,Arial" font-weight="bold" font-size="14.00">corr_gate</text>
<text text-anchor="start" x="691.5" y="-761.3" font-family="Inter,Helvetica,Arial" font-size="14.00">soft down‑weight corr views</text>
<text text-anchor="start" x="691.5" y="-743.5" font-family="Inter,Helvetica,Arial" font-size="10.00" fill="#64748b">σ(init≈−1)</text>
</g>
<!-- STD&#45;&gt;CORRG -->
<g id="edge4" class="edge">
<title>STD&#45;&gt;CORRG</title>
<path fill="none" stroke="#334155" d="M785.5,-833.81C785.5,-833.81 785.5,-806.32 785.5,-806.32"/>
<polygon fill="#334155" stroke="#334155" points="788.3,-806.32 785.5,-798.32 782.7,-806.32 788.3,-806.32"/>
</g>
<!-- ENC&#45;&gt;L1 -->
<g id="edge5" class="edge">
<title>ENC&#45;&gt;L1</title>
<path fill="none" stroke="#334155" d="M258.5,-930.81C258.5,-930.81 258.5,-903.32 258.5,-903.32"/>
<polygon fill="#334155" stroke="#334155" points="261.3,-903.32 258.5,-895.32 255.7,-903.32 261.3,-903.32"/>
</g>
<!-- L2 -->
<g id="node16" class="node">
<title>L2</title>
<text text-anchor="start" x="139.5" y="-783.3" font-family="Inter,Helvetica,Arial" font-weight="bold" font-size="14.00">DGT layer 2</text>
<text text-anchor="start" x="139.5" y="-761.3" font-family="Inter,Helvetica,Arial" font-size="14.00">TransformerConv per view + fusion</text>
<text text-anchor="start" x="139.5" y="-743.5" font-family="Inter,Helvetica,Arial" font-size="10.00" fill="#64748b">learn σ(g2[v])</text>
</g>
<!-- L1&#45;&gt;L2 -->
<g id="edge6" class="edge">
<title>L1&#45;&gt;L2</title>
<path fill="none" stroke="#334155" d="M255.5,-833.81C255.5,-833.81 255.5,-806.32 255.5,-806.32"/>
<polygon fill="#334155" stroke="#334155" points="258.3,-806.32 255.5,-798.32 252.7,-806.32 258.3,-806.32"/>
</g>
<!-- H -->
<g id="node17" class="node">
<title>H</title>
<text text-anchor="start" x="246.5" y="-686.3" font-family="Inter,Helvetica,Arial" font-weight="bold" font-size="14.00">Node embeddings</text>
<text text-anchor="start" x="246.5" y="-664.3" font-family="Inter,Helvetica,Arial" font-size="14.00">H</text>
<text text-anchor="start" x="246.5" y="-646.5" font-family="Inter,Helvetica,Arial" font-size="10.00" fill="#64748b">[N, D]</text>
</g>
<!-- L2&#45;&gt;H -->
<g id="edge7" class="edge">
<title>L2&#45;&gt;H</title>
<path fill="none" stroke="#334155" d="M308.5,-736.81C308.5,-736.81 308.5,-709.32 308.5,-709.32"/>
<polygon fill="#334155" stroke="#334155" points="311.3,-709.32 308.5,-701.32 305.7,-709.32 311.3,-709.32"/>
</g>
<!-- H&#45;&gt;GATHER -->
<g id="edge8" class="edge">
<title>H&#45;&gt;GATHER</title>
<path fill="none" stroke="#334155" d="M337.25,-639.87C337.25,-639.87 337.25,-598.03 337.25,-598.03"/>
<polygon fill="#334155" stroke="#334155" points="340.05,-598.03 337.25,-590.03 334.45,-598.03 340.05,-598.03"/>
</g>
<!-- H&#45;&gt;LOO -->
<g id="edge9" class="edge">
<title>H&#45;&gt;LOO</title>
<path fill="none" stroke="#334155" d="M375.22,-670C429.45,-670 497,-670 497,-670 497,-670 497,-598.28 497,-598.28"/>
<polygon fill="#334155" stroke="#334155" points="499.8,-598.28 497,-590.28 494.2,-598.28 499.8,-598.28"/>
</g>
<!-- PFP -->
<g id="node20" class="node">
<title>PFP</title>
<text text-anchor="start" x="441.5" y="-472.3" font-family="Inter,Helvetica,Arial" font-weight="bold" font-size="14.00">Residual fusion</text>
<text text-anchor="start" x="441.5" y="-450.3" font-family="Inter,Helvetica,Arial" font-size="14.00">z = z_pre − σ(pf_gate)·pf_proj([V_abs,0])</text>
<text text-anchor="start" x="441.5" y="-432.5" font-family="Inter,Helvetica,Arial" font-size="10.00" fill="#64748b">2D → D</text>
</g>
<!-- GATHER&#45;&gt;PFP -->
<g id="edge10" class="edge">
<title>GATHER&#45;&gt;PFP</title>
<path fill="none" stroke="#334155" d="M442.83,-528.88C442.83,-528.88 442.83,-495.18 442.83,-495.18"/>
<polygon fill="#334155" stroke="#334155" points="445.63,-495.18 442.83,-487.18 440.03,-495.18 445.63,-495.18"/>
</g>
<!-- DRAG -->
<g id="node26" class="node">
<title>DRAG</title>
<text text-anchor="start" x="1121.5" y="-472.3" font-family="Inter,Helvetica,Arial" font-weight="bold" font-size="14.00">Negative drag (opt)</text>
<text text-anchor="start" x="1121.5" y="-450.3" font-family="Inter,Helvetica,Arial" font-size="14.00">− λ · |cos(z_pre, V_abs)|</text>
<text text-anchor="start" x="1121.5" y="-432.5" font-family="Inter,Helvetica,Arial" font-size="10.00" fill="#64748b">conservative bias</text>
</g>
<!-- GATHER&#45;&gt;DRAG -->
<g id="edge31" class="edge">
<title>GATHER&#45;&gt;DRAG</title>
<path fill="none" stroke="#334155" stroke-dasharray="5,2" d="M448.17,-528.95C448.17,-517.86 448.17,-508 448.17,-508 448.17,-508 1135.17,-508 1135.17,-508 1135.17,-508 1135.17,-495.05 1135.17,-495.05"/>
<polygon fill="#334155" stroke="#334155" points="1137.97,-495.05 1135.17,-487.05 1132.37,-495.05 1137.97,-495.05"/>
</g>
<!-- LOO&#45;&gt;PFP -->
<g id="edge11" class="edge">
<title>LOO&#45;&gt;PFP</title>
<path fill="none" stroke="#334155" d="M596.25,-528.88C596.25,-528.88 596.25,-495.18 596.25,-495.18"/>
<polygon fill="#334155" stroke="#334155" points="599.05,-495.18 596.25,-487.18 593.45,-495.18 599.05,-495.18"/>
</g>
<!-- LOO&#45;&gt;DRAG -->
<g id="edge32" class="edge">
<title>LOO&#45;&gt;DRAG</title>
<path fill="none" stroke="#334155" stroke-dasharray="5,2" d="M712.11,-544C875.11,-544 1152.83,-544 1152.83,-544 1152.83,-544 1152.83,-495.1 1152.83,-495.1"/>
<polygon fill="#334155" stroke="#334155" points="1155.63,-495.1 1152.83,-487.1 1150.03,-495.1 1155.63,-495.1"/>
</g>
<!-- ATTN -->
<g id="node23" class="node">
<title>ATTN</title>
<text text-anchor="start" x="745.5" y="-375.3" font-family="Inter,Helvetica,Arial" font-weight="bold" font-size="14.00">Portfolio self‑attention</text>
<text text-anchor="start" x="745.5" y="-353.3" font-family="Inter,Helvetica,Arial" font-size="14.00">tokens grouped by pf_gid</text>
<text text-anchor="start" x="745.5" y="-335.5" font-family="Inter,Helvetica,Arial" font-size="10.00" fill="#64748b">TransformerEncoder</text>
</g>
<!-- PFP&#45;&gt;ATTN -->
<g id="edge27" class="edge">
<title>PFP&#45;&gt;ATTN</title>
<path fill="none" stroke="#334155" d="M711.68,-471C736.93,-471 755.5,-471 755.5,-471 755.5,-471 755.5,-398.26 755.5,-398.26"/>
<polygon fill="#334155" stroke="#334155" points="758.3,-398.26 755.5,-390.26 752.7,-398.26 758.3,-398.26"/>
</g>
<!-- CAT -->
<g id="node24" class="node">
<title>CAT</title>
<text text-anchor="start" x="712.5" y="-264.8" font-family="Inter,Helvetica,Arial" font-weight="bold" font-size="14.00">Concatenate</text>
<text text-anchor="start" x="712.5" y="-242.8" font-family="Inter,Helvetica,Arial" font-size="14.00">[z, (ctx...), (pf_head...), (attn_ctx...)]</text>
</g>
<!-- PFP&#45;&gt;CAT -->
<g id="edge24" class="edge">
<title>PFP&#45;&gt;CAT</title>
<path fill="none" stroke="#334155" d="M711.55,-456C717.89,-456 721.67,-456 721.67,-456 721.67,-456 721.67,-287.06 721.67,-287.06"/>
<polygon fill="#334155" stroke="#334155" points="724.47,-287.06 721.67,-279.06 718.87,-287.06 724.47,-287.06"/>
</g>
<!-- MKT -->
<g id="node21" class="node">
<title>MKT</title>
<text text-anchor="start" x="774.5" y="-472.3" font-family="Inter,Helvetica,Arial" font-weight="bold" font-size="14.00">Market encoder</text>
<text text-anchor="start" x="774.5" y="-450.3" font-family="Inter,Helvetica,Arial" font-size="14.00">mkt_enc</text>
<text text-anchor="start" x="774.5" y="-432.5" font-family="Inter,Helvetica,Arial" font-size="10.00" fill="#64748b">market_feat → D</text>
</g>
<!-- MKT&#45;&gt;ATTN -->
<g id="edge28" class="edge">
<title>MKT&#45;&gt;ATTN</title>
<path fill="none" stroke="#334155" d="M828.5,-425.81C828.5,-425.81 828.5,-398.32 828.5,-398.32"/>
<polygon fill="#334155" stroke="#334155" points="831.3,-398.32 828.5,-390.32 825.7,-398.32 831.3,-398.32"/>
</g>
<!-- MKT&#45;&gt;CAT -->
<g id="edge25" class="edge">
<title>MKT&#45;&gt;CAT</title>
<path fill="none" stroke="#334155" d="M769.74,-441C749.27,-441 731.33,-441 731.33,-441 731.33,-441 731.33,-287.19 731.33,-287.19"/>
<polygon fill="#334155" stroke="#334155" points="734.13,-287.19 731.33,-279.19 728.53,-287.19 734.13,-287.19"/>
</g>
<!-- TRD -->
<g id="node22" class="node">
<title>TRD</title>
<text text-anchor="start" x="918.5" y="-472.3" font-family="Inter,Helvetica,Arial" font-weight="bold" font-size="14.00">Trade encoder</text>
<text text-anchor="start" x="918.5" y="-450.3" font-family="Inter,Helvetica,Arial" font-size="14.00">trade_enc</text>
<text text-anchor="start" x="918.5" y="-432.5" font-family="Inter,Helvetica,Arial" font-size="10.00" fill="#64748b">trade_feat → D</text>
</g>
<!-- TRD&#45;&gt;ATTN -->
<g id="edge29" class="edge">
<title>TRD&#45;&gt;ATTN</title>
<path fill="none" stroke="#334155" d="M914.46,-456C906.41,-456 900.75,-456 900.75,-456 900.75,-456 900.75,-398.03 900.75,-398.03"/>
<polygon fill="#334155" stroke="#334155" points="903.55,-398.03 900.75,-390.03 897.95,-398.03 903.55,-398.03"/>
</g>
<!-- TRD&#45;&gt;CAT -->
<g id="edge26" class="edge">
<title>TRD&#45;&gt;CAT</title>
<path fill="none" stroke="#334155" d="M932.25,-425.77C932.25,-425.77 932.25,-287.12 932.25,-287.12"/>
<polygon fill="#334155" stroke="#334155" points="935.05,-287.12 932.25,-279.12 929.45,-287.12 935.05,-287.12"/>
</g>
<!-- ATTN&#45;&gt;CAT -->
<g id="edge30" class="edge">
<title>ATTN&#45;&gt;CAT</title>
<path fill="none" stroke="#334155" d="M828.5,-328.75C828.5,-328.75 828.5,-287.26 828.5,-287.26"/>
<polygon fill="#334155" stroke="#334155" points="831.3,-287.26 828.5,-279.26 825.7,-287.26 831.3,-287.26"/>
</g>
<!-- HEAD -->
<g id="node25" class="node">
<title>HEAD</title>
<text text-anchor="start" x="771.5" y="-184.3" font-family="Inter,Helvetica,Arial" font-weight="bold" font-size="14.00">Regression head</text>
<text text-anchor="start" x="771.5" y="-162.3" font-family="Inter,Helvetica,Arial" font-size="14.00">MLP → ŷ</text>
<text text-anchor="start" x="771.5" y="-144.5" font-family="Inter,Helvetica,Arial" font-size="10.00" fill="#64748b">[B]</text>
</g>
<!-- CAT&#45;&gt;HEAD -->
<g id="edge12" class="edge">
<title>CAT&#45;&gt;HEAD</title>
<path fill="none" stroke="#334155" d="M828.5,-234.67C828.5,-234.67 828.5,-207.18 828.5,-207.18"/>
<polygon fill="#334155" stroke="#334155" points="831.3,-207.18 828.5,-199.18 825.7,-207.18 831.3,-207.18"/>
</g>
<!-- LEGEND -->
<g id="node27" class="node">
<title>LEGEND</title>
<polygon fill="#f8fafc" stroke="transparent" points="659,0 659,-102 998,-102 998,0 659,0"/>
<polygon fill="#f1f5f9" stroke="transparent" points="661.5,-71 661.5,-100 996.5,-100 996.5,-71 661.5,-71"/>
<polygon fill="none" stroke="#cbd5e1" points="661.5,-71 661.5,-100 996.5,-100 996.5,-71 661.5,-71"/>
<text text-anchor="start" x="668.5" y="-82.8" font-family="Inter,Helvetica,Arial" font-weight="bold" font-size="14.00">Legend</text>
<polygon fill="none" stroke="#cbd5e1" points="661.5,-2 661.5,-69 996.5,-69 996.5,-2 661.5,-2"/>
<text text-anchor="start" x="670.5" y="-48.8" font-family="Inter,Helvetica,Arial" font-size="14.00">•</text>
<text text-anchor="start" x="686.5" y="-48.8" font-family="Inter,Helvetica,Arial" font-size="14.00">D = hidden size (shared embedding)</text>
<text text-anchor="start" x="670.5" y="-31.8" font-family="Inter,Helvetica,Arial" font-size="14.00">•</text>
<text text-anchor="start" x="686.5" y="-31.8" font-family="Inter,Helvetica,Arial" font-size="14.00">LOO = strict leave‑one‑out portfolio prototype</text>
<text text-anchor="start" x="670.5" y="-14.8" font-family="Inter,Helvetica,Arial" font-size="14.00">•</text>
<text text-anchor="start" x="686.5" y="-14.8" font-family="Inter,Helvetica,Arial" font-size="14.00">Gates use σ(·) = sigmoid</text>
</g>
<!-- HEAD&#45;&gt;LEGEND -->
<!-- DRAG&#45;&gt;CAT -->
<g id="edge33" class="edge">
<title>DRAG&#45;&gt;CAT</title>
<path fill="none" stroke="#334155" stroke-dasharray="5,2" d="M1200.5,-425.77C1200.5,-369.8 1200.5,-257 1200.5,-257 1200.5,-257 956.51,-257 956.51,-257"/>
<polygon fill="#334155" stroke="#334155" points="956.51,-254.2 948.51,-257 956.51,-259.8 956.51,-254.2"/>
</g>
</g>
</svg>
